HIERARCHY
ROOT Hips
{
	OFFSET 52.133999 -27.186913 86.659492
	CHANNELS 6 Xposition Yposition Zposition Xrotation Yrotation Zrotation
	JOINT spine
	{
		OFFSET 0.000000 -0.393702 6.846367
		CHANNELS 3 Xrotation Yrotation Zrotation
		JOINT spine1
		{
			OFFSET 0.000000 -0.000002 9.496208
			CHANNELS 3 Xrotation Yrotation Zrotation
			JOINT spine2
			{
				OFFSET 0.000000 -0.000002 9.099091
				CHANNELS 3 Xrotation Yrotation Zrotation
				JOINT Neck
				{
					OFFSET 0.000000 -1.113783 23.361214
					CHANNELS 3 Xrotation Yrotation Zrotation
					JOINT Head
					{
						OFFSET 0.000000 0.000000 7.058014
						CHANNELS 3 Xrotation Yrotation Zrotation
						End Site
						{
							OFFSET 0.000000 5.634186 17.084396
						}
					}
				}
				JOINT RightShoulder
				{
					OFFSET -3.831360 0.533491 9.826309
					CHANNELS 3 Xrotation Yrotation Zrotation
					JOINT RightArm
					{
						OFFSET 0.000000 -0.000004 12.888115
						CHANNELS 3 Xrotation Yrotation Zrotation
						JOINT RightArmRoll
						{
							OFFSET 0.000000 0.000000 6.506165
							CHANNELS 3 Xrotation Yrotation Zrotation
							JOINT RightForeArm
							{
								OFFSET 0.000000 -0.000004 18.950104
								CHANNELS 3 Xrotation Yrotation Zrotation
								JOINT RightForeArmRoll
								{
									OFFSET 0.000000 0.000000 7.300919
									CHANNELS 3 Xrotation Yrotation Zrotation
									JOINT RightHand
									{
										OFFSET 0.000000 -0.000004 14.651398
										CHANNELS 3 Xrotation Yrotation Zrotation
										End Site
										{
											OFFSET 0.000000 0.000000 0.100006
										}
									}
								}
							}
						}
					}
				}
				JOINT LeftShoulder
				{
					OFFSET 3.831360 0.533491 9.826309
					CHANNELS 3 Xrotation Yrotation Zrotation
					JOINT LeftArm
					{
						OFFSET 0.000000 -0.000004 12.888115
						CHANNELS 3 Xrotation Yrotation Zrotation
						JOINT LeftArmRoll
						{
							OFFSET 0.000000 0.000000 6.506165
							CHANNELS 3 Xrotation Yrotation Zrotation
							JOINT LeftForeArm
							{
								OFFSET 0.000000 -0.000004 18.950104
								CHANNELS 3 Xrotation Yrotation Zrotation
								JOINT LeftForeArmRoll
								{
									OFFSET 0.000000 0.000000 7.300919
									CHANNELS 3 Xrotation Yrotation Zrotation
									JOINT LeftHand
									{
										OFFSET 0.000000 -0.000004 14.651398
										CHANNELS 3 Xrotation Yrotation Zrotation
										End Site
										{
											OFFSET 0.000000 0.000000 0.100006
										}
									}
								}
							}
						}
					}
				}
			}
		}
	}
	JOINT RightUpLeg
	{
		OFFSET -6.068371 0.933477 -1.112778
		CHANNELS 3 Xrotation Yrotation Zrotation
		JOINT RightUpLegRoll
		{
			OFFSET 0.000000 -0.000004 17.179596
			CHANNELS 3 Xrotation Yrotation Zrotation
			JOINT RightLeg
			{
				OFFSET 0.000000 0.000004 -21.274300
				CHANNELS 3 Xrotation Yrotation Zrotation
				JOINT RightLegRoll
				{
					OFFSET 0.000000 -0.000004 21.343903
					CHANNELS 3 Xrotation Yrotation Zrotation
					JOINT RightFoot
					{
						OFFSET 0.000000 -0.000002 17.765198
						CHANNELS 3 Xrotation Yrotation Zrotation
						JOINT RightToeBase
						{
							OFFSET 0.000000 -0.000004 14.850815
							CHANNELS 3 Xrotation Yrotation Zrotation
							End Site
							{
								OFFSET 0.006294 0.829004 7.192139
							}
						}
					}
				}
			}
		}
	}
	JOINT LeftUpLeg
	{
		OFFSET 6.068371 0.933477 -1.112778
		CHANNELS 3 Xrotation Yrotation Zrotation
		JOINT LeftUpLegRoll
		{
			OFFSET 0.000000 -0.000004 17.179703
			CHANNELS 3 Xrotation Yrotation Zrotation
			JOINT LeftLeg
			{
				OFFSET 0.000000 -0.000004 21.274200
				CHANNELS 3 Xrotation Yrotation Zrotation
				JOINT LeftLegRoll
				{
					OFFSET 0.000000 -0.000002 21.541206
					CHANNELS 3 Xrotation Yrotation Zrotation
					JOINT LeftFoot
					{
						OFFSET 0.000000 -0.000004 17.567902
						CHANNELS 3 Xrotation Yrotation Zrotation
						JOINT LeftToeBase
						{
							OFFSET 0.000000 -0.000002 14.850800
							CHANNELS 3 Xrotation Yrotation Zrotation
							End Site
							{
								OFFSET -0.028210 0.829002 7.192139
							}
						}
					}
				}
			}
		}
	}
}
MOTION
Frames: 6
Frame Time: 0.041667
51.169098 5.308556 52.424526 -19.102408 5.686031 -4.730064 0.584897 -1.806027 2.307014 5.248623 -3.562749 4.651860 6.892741 -3.506846 4.694131 13.115033 16.031933 -6.887454 9.839246 -11.504532 -6.159719 -16.723310 -52.503507 -19.667146 127.420758 -36.325955 92.991455 -0.000005 0.000011 -0.000004 25.226709 -26.252945 10.415084 -0.000000 0.000010 -3.000012 -5.000407 -7.999967 0.000013 -14.625930 70.155742 17.539094 115.932585 35.007079 -107.077019 0.000000 0.000002 0.000002 14.530044 33.214015 -5.804266 0.000004 -0.000004 3.000011 -5.000222 8.000666 -0.000040 -66.354195 178.929660 6.222199 179.999991 0.000005 -1.847001 97.988073 -0.473446 -1.808949 -0.000000 -0.000003 1.883040 61.123868 8.666216 -1.212373 25.456960 -7.355613 -0.000000 -68.685134 170.275564 -1.923021 -0.000005 -0.000004 -1.139350 -87.325854 -3.575939 0.598593 -0.000005 -0.000004 -2.429941 65.518726 -7.709189 -0.408521 25.456861 7.355621 0.000013 
51.169197 5.313274 52.423534 -19.115280 5.680408 -4.735835 0.597677 -1.802563 2.297431 5.273744 -3.555496 4.632995 6.917865 -3.499810 4.675178 13.111062 16.081566 -6.855816 9.878704 -11.537716 -6.122226 -16.663556 -52.468946 -19.592778 127.451316 -36.238166 93.078546 -0.000005 0.000009 -0.000003 25.104903 -26.310228 10.389223 0.000003 0.000011 -3.000012 -5.000406 -7.999965 0.000013 -14.765184 70.164915 17.694211 115.859611 34.970968 -106.974163 0.000003 0.000002 0.000003 14.479777 33.232323 -5.799005 0.000004 -0.000006 3.000010 -5.000224 8.000667 -0.000041 -66.345370 178.932501 6.218343 179.999991 0.000005 -1.846004 97.942010 -0.459363 -1.802113 -0.000000 -0.000003 1.882490 61.165287 8.659743 -1.204290 25.456960 -7.355613 0.000002 -68.656945 170.273037 -1.936376 -0.000005 -0.000004 -1.143629 -87.358461 -3.581942 0.583510 -0.000005 -0.000004 -2.422530 65.498201 -7.709863 -0.409315 25.456856 7.355620 0.000013 
51.172203 5.314133 52.422119 -19.129680 5.675093 -4.742152 0.610760 -1.799148 2.287806 5.299460 -3.548317 4.614049 6.943602 -3.492858 4.656148 13.106430 16.132121 -6.823591 9.918628 -11.571755 -6.084082 -16.603046 -52.433866 -19.517491 127.482202 -36.148793 93.166929 -0.000006 0.000011 -0.000005 24.982392 -26.367856 10.362915 0.000005 0.000012 -3.000009 -5.000408 -7.999966 0.000014 -14.908150 70.175003 17.853467 115.784520 34.935772 -106.868575 0.000003 0.000002 0.000003 14.429709 33.250392 -5.793744 0.000005 -0.000005 3.000011 -5.000226 8.000668 -0.000039 -66.335152 178.934892 6.213516 179.999991 0.000005 -1.845007 97.893953 -0.444891 -1.796310 -0.000001 -0.000004 1.881920 61.208733 8.653015 -1.195832 25.456959 -7.355613 0.000000 -68.626264 170.269909 -1.950876 -0.000005 -0.000005 -1.148080 -87.392694 -3.588265 0.567588 -0.000005 -0.000004 -2.414780 65.476003 -7.710564 -0.410233 25.456856 7.355622 0.000013 
51.172798 5.316063 52.424435 -19.145092 5.670008 -4.748861 0.624055 -1.795764 2.278147 5.325609 -3.541199 4.595038 6.969761 -3.485964 4.637064 13.101444 16.183489 -6.791019 9.958891 -11.606562 -6.045438 -16.542170 -52.398414 -19.441690 127.513239 -36.058689 93.255653 -0.000001 0.000009 -0.000006 24.859256 -26.425626 10.336122 0.000006 0.000011 -3.000012 -5.000408 -7.999968 0.000012 -15.053645 70.185603 18.015573 115.709319 34.900245 -106.763145 0.000003 0.000001 0.000003 14.379689 33.268243 -5.788412 0.000003 -0.000002 3.000011 -5.000224 8.000661 -0.000041 -66.323889 178.936012 6.210144 179.999991 0.000005 -1.843996 97.844406 -0.429931 -1.788528 -0.000000 -0.000003 1.881330 61.253580 8.646047 -1.187141 25.456962 -7.355613 0.000001 -68.593896 170.266098 -1.965558 -0.000005 -0.000004 -1.152640 -87.427965 -3.594936 0.551127 -0.000005 -0.000004 -2.406800 65.452651 -7.711273 -0.411237 25.456860 7.355620 0.000013 
51.173698 5.318047 52.419128 -19.161006 5.665057 -4.755802 0.637466 -1.792389 2.268479 5.351989 -3.534127 4.576001 6.996160 -3.479117 4.617934 13.096076 16.235269 -6.758190 9.999333 -11.641545 -6.006547 -16.480820 -52.362689 -19.365422 127.544289 -35.967790 93.344931 -0.000005 0.000010 -0.000006 24.735737 -26.483589 10.309016 0.000004 0.000009 -3.000010 -5.000406 -7.999968 0.000013 -15.200618 70.196368 18.179334 115.633436 34.864902 -106.656887 0.000002 0.000002 0.000003 14.329756 33.285954 -5.783064 0.000004 -0.000005 3.000010 -5.000224 8.000664 -0.000040 -66.312121 178.937132 6.206000 179.999991 0.000005 -1.842999 97.794136 -0.414953 -1.782729 -0.000001 -0.000003 1.880740 61.299145 8.639016 -1.178217 25.456957 -7.355613 0.000000 -68.560428 170.262286 -1.981240 -0.000005 -0.000004 -1.157270 -87.463871 -3.601752 0.534352 -0.000005 -0.000004 -2.398680 65.428588 -7.712046 -0.412204 25.456854 7.355620 0.000014 
51.175598 5.321457 52.419933 -19.177127 5.660138 -4.762801 0.650916 -1.789025 2.258792 5.378438 -3.527074 4.556953 7.022618 -3.472300 4.598806 13.090715 16.287056 -6.725288 10.039854 -11.676611 -5.967535 -16.419566 -52.326837 -19.289217 127.575107 -35.876887 93.433989 -0.000005 0.000009 -0.000004 24.612134 -26.541587 10.281695 -0.000000 0.000011 -3.000011 -5.000411 -7.999962 0.000015 -15.348089 70.207084 18.343663 115.557676 34.829467 -106.550623 0.000005 0.000001 0.000003 14.279816 33.303654 -5.777673 0.000004 -0.000004 3.000010 -5.000225 8.000666 -0.000040 -66.300073 178.938225 6.201674 179.999991 0.000005 -1.842001 97.743648 -0.399851 -1.774933 -0.000001 -0.000003 1.880150 61.344907 8.631964 -1.169210 25.456959 -7.355613 0.000000 -68.526940 170.258038 -1.996094 -0.000005 -0.000004 -1.161920 -87.499935 -3.608617 0.517368 -0.000005 -0.000004 -2.390530 65.404416 -7.712837 -0.413083 25.456861 7.355620 0.000013 
